<svg width="97" height="53" fill="none" xmlns="http://www.w3.org/2000/svg"><path d="M61.554 36.005c1.837 0 3.27-.41 4.301-1.232 1.03-.821 1.546-1.945 1.546-3.371 0-1.03-.275-1.9-.825-2.61-.55-.71-1.565-1.417-3.048-2.123-1.12-.533-1.831-.902-2.132-1.107-.3-.206-.519-.418-.656-.638a1.427 1.427 0 0 1-.206-.773c0-.475.17-.86.51-1.156.34-.295.828-.443 1.464-.443.535 0 1.08.069 1.633.206.553.137 1.253.378 2.1.724l1.084-2.604c-.817-.353-1.6-.627-2.349-.822a9.348 9.348 0 0 0-2.36-.291c-1.677 0-2.992.4-3.943 1.199-.95.8-1.426 1.898-1.426 3.296 0 .741.145 1.39.434 1.944.29.555.676 1.041 1.16 1.46.485.417 1.212.853 2.181 1.307 1.034.49 1.72.846 2.056 1.07.336.223.591.455.765.696.173.242.26.517.26.827 0 .554-.197.972-.591 1.253-.394.281-.96.422-1.698.422-.615 0-1.293-.098-2.034-.292-.741-.195-1.647-.53-2.718-1.005v3.112c1.302.634 2.8.95 4.492.95Zm13.337-.216v-6.246h5.38V26.81h-5.38v-4.074h5.782v-2.744h-9.09v15.797h3.308Zm16.614.216c1.606 0 3.06-.27 4.36-.81v-2.81c-1.583.555-2.932.832-4.045.832-2.655 0-3.982-1.761-3.982-5.284 0-1.692.347-3.012 1.042-3.96.694-.947 1.674-1.42 2.94-1.42.578 0 1.168.104 1.768.313.6.209 1.197.454 1.79.735l1.085-2.723c-1.555-.742-3.103-1.113-4.643-1.113-1.512 0-2.83.33-3.955.988-1.124.66-1.987 1.607-2.587 2.842-.6 1.235-.9 2.674-.9 4.317 0 2.607.61 4.608 1.833 6.002 1.222 1.394 2.987 2.09 5.294 2.09Z" fill="#000"/><path fill-rule="evenodd" clip-rule="evenodd" d="M11.609 18.44h3.702v1.23h2.469v3.688h-2.469v27.047l-3.702 2.459V23.358H.5V19.67h11.109v-1.23Zm29.96-8.605-.001 10.32h9.538v2.815h-9.538v20.64l-2.861 1.877V22.97h-8.584v-2.814h8.583v-8.444l2.862-1.877ZM19.013 19.67h3.703v3.688h-3.703V19.67Zm4.937 0h3.703v3.688H23.95V19.67Zm-8.64-2.46h-3.7v-3.687h3.702v3.688Zm0-11.063v6.146h-3.7V8.606l3.702-2.459Z" fill="#000" fill-opacity=".25"/><path fill-rule="evenodd" clip-rule="evenodd" d="M22.717 0v13.523H35.06v3.688H22.717v27.047l-3.703 2.459V17.21H7.905v-3.688h11.109V2.46L22.717 0Z" fill="#000"/></svg>