<svg width="77" height="77" fill="none" xmlns="http://www.w3.org/2000/svg"><g clip-path="url(#a)" fill="#000"><path fill-rule="evenodd" clip-rule="evenodd" d="M64.717 21.741h2.532c-1.461-2.47-3.427-4.738-5.462-6.734-.013-.124.02 6.734.02 6.734h2.91v1.594H60.25V6.845c4.78 3.118 10.312 8.994 13.583 16.49-.009.003-5.098.003-9.115 0V21.74Z"/><path fill-rule="evenodd" clip-rule="evenodd" d="M13.386 59.803A32.85 32.85 0 0 1 5.65 38.578c0-12.692 7.17-23.707 17.678-29.224.142 1.383-.162 2.144-.148 2.34.099 1.626-1.354 6.287-1.593 8.938-.046.504.138 2.633.415 3.118.277.484 1.386 4.088 1.386 4.088s.277 3.05-.07 3.81c-.347.764-.9 4.297-.9 4.297s-.554 1.596.694 4.506c1.246 2.906.968 4.848.968 4.848s.14.901-.9 4.091c-1.039 3.187-.276 5.127-.276 5.127s.064.21.831 2.564c.97 2.977.068 2.701.068 2.701h-3.88l.017 1.785 4.625-.011s.486-.596.554-1.15c.032-.253.063-1.001 0-2.355-.073-1.623-.631-3.65-.449-5.343.317-2.965 1.281-2.351 1.281-6.229 0-2.842-.9-5.476-.9-5.476s-1.611-2.099-.503-7.776c.968-4.961-.4-7.605-.4-7.605s-.69-2.424-.69-3.813c0-2.225.425-2.197.76-5.403.124-1.186.333-2.63.417-3.88.11-1.652 0-2.98 0-2.98l.276-3.048s1.15.614 1.04.972c-1.664 5.334-.19 10.27.137 11.5.278 1.04.413 3.285.626 4.229.484 2.145-.348 8.174-.625 9.977-.32 2.077-.694 6.095 1.592 9.423 2.288 3.326 1.04 6.723 1.04 6.723s-.783 3.961-.9 4.57c-.346 1.802-.664 4.51-.554 5.612.07.692.208 1.387 1.317 1.457.625.038 1.039-.903 1.039-.903s0-1.144-.486-3.118c-.558-2.27.053-3.998.763-6.303.83-2.702.138-5.96.138-5.96s0-1.66-1.454-4.641c-1.457-2.98-2.08-6.099-.554-9.492 1.524-3.396-.187-8.693-.486-10.533-.485-2.978-.072-7.345-.14-8.247-.205-2.771.556-6.235.556-6.235l1.548 1.743.91-1.937s.066 4.013-.448 5.182c-1.732 3.95-.556 7.9-.556 7.9l1.249 4.364s1.173 5.982.208 8.452c-1.733 4.436.554 7.693.624 8.454.07.764 1.454 4.455.761 6.929-.83 2.98-1.176 5.822-.207 7.691.639 1.235.486 2.84.486 2.84s-.486 2.222-.556 2.704c-.139.967 1.001 1.351 1.246 1.315.486-.069 1.327-.221.937-1.246-.236-.617-.218-.796-.357-1.767-.08-.569.474-1.569-.371-4.606-.692-2.498-.67-3.439.208-6.514 1.11-3.882-.831-8.523-1.04-9.078-.206-.552-.623-2.979.277-8.383.902-5.405-.206-7.691-1.315-10.671-.889-2.38-.902-3.95-.07-5.682 1.17-2.435.623-4.849.623-4.849s-.623-3.812-.552-3.74c1.072 1.072 2.285 1.108 2.285 1.108s-.208 1.524.694 2.77c.417.58 1.34 3.056.208 5.268-1.456 2.84-.97 7.274-.07 9.424.9 2.146.694 6.373.554 6.65-.139.276-.555 6.444-.555 6.93 0 .484.168 3.29 1 4.676.832 1.386 1.079 4.887.248 6.48-.83 1.593-.486 5.472-.553 5.888-.07.416.346 3.534.346 3.882 0 .347.623 2.838.76 3.114.139.278.417.558.417.558s.83 0 1.248-1.04c.232-.578.138-1.871-1.11-4.849-1.246-2.983.07-5.684.487-6.93.415-1.245.578-7.103-.764-9.77-1.072-2.135-1.108-5.475-.554-7.275.554-1.801.762-7.206.277-8.661-.484-1.458-1.177-4.99 0-7.692 1.178-2.7 0-7.066-.484-7.69-.486-.624-.693-3.048-.139-2.912.36.092 1.36-.15 2.044-.275.373-.07.901-.694.797-.278-.693 2.77.671 7.562.671 7.562s1.02 3.153-1.089 8.228c-1.632 3.934.302 8.954.302 8.954s1.918 3.317.255 8.514c-1.223 3.82.41 7.82.41 7.82s1.514 2.42.42 5.967c-1.351 4.385-.54 5.711-.068 6.861.271.663.763 3.64.763 3.64s28.894-.037 28.88.012a38.226 38.226 0 0 0 7.633-22.983 38.386 38.386 0 0 0-1.44-10.463c-.01-.045-10.303 0-10.303 0v1.524l5.319.024c.796 2.854 1.16 5.788 1.16 8.915 0 8.097-2.975 15.463-7.82 21.203H42.648c-.485-.278-2.683-4.102-1.593-7.553 1.341-4.24-.484-8.661-.9-9.701-.415-1.038-.07-4.226.555-6.442.623-2.218.658-6.125-.624-7.9-.662-.914-.761-3.396-.9-4.019-.14-.624-.208-2.357 1.316-6.306 1.526-3.948.743-5.446.347-6.65-.219-.658-.7-2.73-.901-3.535-.07-.278-.063-.939-.14-1.87 4.919.232 9.818 1.296 13.927 3.4v12.536h-9.284v7.899h9.285v21.343h8.038V29.64h3.36v-1.524c0 .036-4.885 0-4.885 0v21.34h-4.92V28.047h-9.285v-4.78h9.285V4.14C50.633 1.855 45.308.389 39.81.194c-.208.205-.831 1.87-.831 1.87s-.486.555-.97.9c-.329.235-2.148.692-2.148.692s0-.276-.208-.625c-.21-.344-1.038-.413-1.317.073-.277.484-.415 1.591-.901 1.591-.484 0-2.91-2.077-2.91-2.077l-1.316 3.187s-1.448-2.452-1.593-2.287c-1.456 1.663-2.495 1.11-2.495 1.11s-1.515.067-2.207-.972C9.484 9.636.107 22.932.107 38.578c0 8.62 2.84 16.574 7.635 22.977.035.018 12.199.012 12.199.012l-.017-1.767-6.538.003Z"/><path d="M58.102 65.395V63.22h9.896c-.632.75-1.209 1.468-1.892 2.175-.02-.014-8.003 0-8.003 0Zm-6.306 4.019v-2.15h12.267c-.731.637-1.929 1.566-2.7 2.15h-9.567Zm-5.89 4.122v-2.115h12.482c-1.117.67-2.487 1.544-3.675 2.096-.006.02-8.806.02-8.806.02Zm-.745 2.853a38.811 38.811 0 0 1-6.669.575c-2.397 0-4.305-.134-6.58-.554v-1.072h13.234l.015 1.051ZM18.894 65.407v-2.174H9c.631.754 1.207 1.472 1.892 2.174.017-.009 8.003 0 8.003 0Zm6.329 3.971-.023-2.096H12.938c.725.635 1.848 1.514 2.62 2.096-.034-.036 9.665 0 9.665 0Zm5.868 4.173V71.44H18.61c1.117.671 2.485 1.54 3.671 2.097.009.015 8.809.015 8.809.015Zm-9.643-8.156 9.555-.006v-2.18h-9.555v2.186Zm24.584.036 9.554-.01v-2.174h-9.554v2.184Zm-12.334-.033 9.555-.006v-2.177h-9.555v2.183Zm0 8.246 9.555-.007v-2.175h-9.555v2.182ZM27.6 69.439l9.556-.007v-2.175H27.6v2.182Zm12.252.005 9.553-.009v-2.174h-9.553v2.183Z"/></g><defs><clipPath id="a"><path fill="#fff" d="M0 0h77v77H0z"/></clipPath></defs></svg>