<svg width="45" height="50" fill="none" xmlns="http://www.w3.org/2000/svg"><path fill-rule="evenodd" clip-rule="evenodd" d="M4.94.476C3.228 1.095 1.883 2.212.936 3.802l-.834 1.4-.085 15.51C-.038 30.7.042 36.624.242 37.356c.452 1.658 1.885 3.443 3.53 4.398l1.441.835 7.14.094 7.14.094V22.56H12.58v-5.638h6.915V9.208h6.012v7.715h6.915v5.638h-6.915V50l3.683-3.606 3.683-3.606 3.457-.1c3.153-.09 3.585-.173 4.898-.934 1.646-.954 3.079-2.739 3.532-4.397.2-.732.28-6.657.224-16.646l-.085-15.51-.834-1.399c-.941-1.58-2.388-2.784-4.051-3.37C38.303-.17 6.617-.13 4.94.476Z" fill="#333"/></svg>